<?xml version="1.0"?>
<svg xmlns="http://www.w3.org/2000/svg" xmlns:xlink="http://www.w3.org/1999/xlink" xmlns:svgjs="http://svgjs.com/svgjs" version="1.1" width="512" height="512" x="0" y="0" viewBox="0 0 512.013 512.013" style="enable-background:new 0 0 512 512" xml:space="preserve" class=""><g>
<g xmlns="http://www.w3.org/2000/svg">
	<g>
		<path d="M510.502,297.222c-2.656-5.632-8.288-9.216-14.496-9.216h-48v-128c0-35.296-28.704-64-64-64H145.158l53.344,64h185.504    v128h-48c-6.208,0-11.84,3.584-14.496,9.216c-2.624,5.632-1.792,12.256,2.208,17.024l80,96c3.04,3.68,7.552,5.76,12.288,5.76    c4.736,0,9.248-2.08,12.288-5.76l80-96C512.294,309.478,513.126,302.854,510.502,297.222z" fill="#666871" data-original="#000000" style="" class=""/>
	</g>
</g>
<g xmlns="http://www.w3.org/2000/svg">
	<g>
		<path d="M313.51,352.006H128.006v-128h48c6.208,0,11.84-3.584,14.496-9.216c2.624-5.632,1.792-12.256-2.208-17.024l-80-96    c-3.04-3.68-7.52-5.76-12.288-5.76s-9.248,2.08-12.288,5.76l-80,96c-4,4.768-4.832,11.392-2.208,17.024    c2.656,5.632,8.288,9.216,14.496,9.216h48v128c0,35.296,28.704,64,64,64h238.848L313.51,352.006z" fill="#666871" data-original="#000000" style="" class=""/>
	</g>
</g>
<g xmlns="http://www.w3.org/2000/svg">
</g>
<g xmlns="http://www.w3.org/2000/svg">
</g>
<g xmlns="http://www.w3.org/2000/svg">
</g>
<g xmlns="http://www.w3.org/2000/svg">
</g>
<g xmlns="http://www.w3.org/2000/svg">
</g>
<g xmlns="http://www.w3.org/2000/svg">
</g>
<g xmlns="http://www.w3.org/2000/svg">
</g>
<g xmlns="http://www.w3.org/2000/svg">
</g>
<g xmlns="http://www.w3.org/2000/svg">
</g>
<g xmlns="http://www.w3.org/2000/svg">
</g>
<g xmlns="http://www.w3.org/2000/svg">
</g>
<g xmlns="http://www.w3.org/2000/svg">
</g>
<g xmlns="http://www.w3.org/2000/svg">
</g>
<g xmlns="http://www.w3.org/2000/svg">
</g>
<g xmlns="http://www.w3.org/2000/svg">
</g>
</g></svg>
